# Blender 3.3.0
# www.blender.org
mtllib coin.mtl
o Circle
v 0.000000 0.000000 -1.000000
v -0.587785 0.000000 -0.809017
v -0.951057 0.000000 -0.309017
v -0.951057 0.000000 0.309017
v -0.587785 0.000000 0.809017
v 0.000000 0.000000 1.000000
v 0.587785 0.000000 0.809017
v 0.951057 0.000000 0.309017
v 0.951057 0.000000 -0.309017
v 0.587785 0.000000 -0.809017
v -0.484016 0.000000 -0.666190
v 0.000000 0.000000 -0.823457
v -0.783154 0.000000 -0.254462
v -0.783154 0.000000 0.254462
v -0.484016 0.000000 0.666190
v 0.000000 0.000000 0.823457
v 0.484016 0.000000 0.666190
v 0.783154 0.000000 0.254462
v 0.783154 0.000000 -0.254462
v 0.484016 0.000000 -0.666190
v -0.484016 0.000000 -0.666190
v 0.000000 0.000000 -0.823457
v -0.783154 0.000000 -0.254462
v -0.783154 0.000000 0.254462
v -0.484016 0.000000 0.666190
v 0.000000 0.000000 0.823457
v 0.484016 0.000000 0.666190
v 0.783154 0.000000 0.254462
v 0.783154 0.000000 -0.254462
v 0.484016 0.000000 -0.666190
v 0.000000 0.137526 -1.000000
v -0.587785 0.137526 -0.809017
v -0.951057 0.137526 -0.309017
v -0.951057 0.137526 0.309017
v -0.587785 0.137526 0.809017
v 0.000000 0.137526 1.000000
v 0.587785 0.137526 0.809017
v 0.951057 0.137526 0.309017
v 0.951057 0.137526 -0.309017
v 0.587785 0.137526 -0.809017
v -0.484016 0.137526 -0.666190
v 0.000000 0.137526 -0.823457
v -0.783154 0.137526 -0.254462
v -0.783154 0.137526 0.254462
v -0.484016 0.137526 0.666190
v 0.000000 0.137526 0.823457
v 0.484016 0.137526 0.666190
v 0.783154 0.137526 0.254462
v 0.783154 0.137526 -0.254462
v 0.484016 0.137526 -0.666190
v -0.484016 0.137526 -0.666190
v 0.000000 0.137526 -0.823457
v -0.783154 0.137526 -0.254462
v -0.783154 0.137526 0.254462
v -0.484016 0.137526 0.666190
v 0.000000 0.137526 0.823457
v 0.484016 0.137526 0.666190
v 0.783154 0.137526 0.254462
v 0.783154 0.137526 -0.254462
v 0.484016 0.137526 -0.666190
v -0.484016 0.042905 -0.666190
v 0.000000 0.042905 -0.823457
v -0.783154 0.042905 -0.254462
v -0.783154 0.042905 0.254462
v -0.484016 0.042905 0.666190
v 0.000000 0.042905 0.823457
v 0.484016 0.042905 0.666190
v 0.783154 0.042905 0.254462
v 0.783154 0.042905 -0.254462
v 0.484016 0.042905 -0.666190
v -0.403342 0.083262 -0.555153
v 0.000000 0.083262 -0.686206
v -0.652621 0.083262 -0.212049
v -0.652621 0.083262 0.212049
v -0.403342 0.083262 0.555153
v 0.000000 0.083262 0.686206
v 0.403342 0.083262 0.555153
v 0.652621 0.083262 0.212049
v 0.652621 0.083262 -0.212049
v 0.403342 0.083262 -0.555153
v -0.484016 0.083262 -0.666190
v 0.000000 0.083262 -0.823457
v -0.783154 0.083262 -0.254462
v -0.783154 0.083262 0.254462
v -0.484016 0.083262 0.666190
v 0.000000 0.083262 0.823457
v 0.484016 0.083262 0.666190
v 0.783154 0.083262 0.254462
v 0.783154 0.083262 -0.254462
v 0.484016 0.083262 -0.666190
vn -0.0000 1.0000 -0.0000
vn -0.0000 -1.0000 -0.0000
vn -0.3090 -0.0000 -0.9511
vn -0.8090 -0.0000 0.5878
vn 1.0000 -0.0000 -0.0000
vn -0.3090 -0.0000 0.9511
vn -0.8090 -0.0000 -0.5878
vn 0.8090 -0.0000 -0.5878
vn 0.3090 -0.0000 0.9511
vn -1.0000 -0.0000 -0.0000
vn 0.3090 -0.0000 -0.9511
vn 0.8090 -0.0000 0.5878
vt 0.000000 0.000000
vt 0.000000 0.000000
vt 0.000000 0.000000
vt 0.000000 0.000000
vt 0.000000 0.000000
vt 0.000000 0.000000
vt 0.000000 0.000000
vt 0.000000 0.000000
vt 0.000000 0.000000
vt 0.000000 0.000000
vt 0.000000 0.000000
vt 0.000000 0.000000
vt 0.000000 0.000000
vt 0.000000 0.000000
vt 0.000000 0.000000
vt 0.000000 0.000000
vt 0.000000 0.000000
vt 0.000000 0.000000
vt 0.000000 0.000000
vt 0.000000 0.000000
vt 0.000000 0.000000
vt 0.000000 0.000000
vt 0.000000 0.000000
vt 0.000000 0.000000
vt 0.000000 0.000000
vt 0.000000 0.000000
vt 0.000000 0.000000
vt 0.000000 0.000000
vt 0.000000 0.000000
vt 0.000000 0.000000
vt 0.000000 0.000000
vt 0.000000 0.000000
vt 0.000000 0.000000
vt 0.000000 0.000000
vt 0.000000 0.000000
vt 0.000000 0.000000
vt 0.000000 0.000000
vt 0.000000 0.000000
vt 0.000000 0.000000
vt 0.000000 0.000000
vt 0.000000 0.000000
vt 0.000000 0.000000
vt 0.000000 0.000000
vt 0.000000 0.000000
vt 0.000000 0.000000
vt 0.000000 0.000000
vt 0.000000 0.000000
vt 0.000000 0.000000
vt 0.000000 0.000000
vt 0.000000 0.000000
vt 0.000000 0.000000
vt 0.000000 0.000000
vt 0.000000 0.000000
vt 0.000000 0.000000
vt 0.000000 0.000000
vt 0.000000 0.000000
vt 0.000000 0.000000
vt 0.000000 0.000000
vt 0.000000 0.000000
vt 0.000000 0.000000
vt 0.000000 0.000000
vt 0.000000 0.000000
vt 0.000000 0.000000
vt 0.000000 0.000000
vt 0.000000 0.000000
vt 0.000000 0.000000
vt 0.000000 0.000000
vt 0.000000 0.000000
vt 0.000000 0.000000
vt 0.000000 0.000000
vt 0.000000 0.000000
vt 0.000000 0.000000
vt 0.000000 0.000000
vt 0.000000 0.000000
vt 0.000000 0.000000
vt 0.000000 0.000000
vt 0.000000 0.000000
vt 0.000000 0.000000
vt 0.000000 0.000000
vt 0.000000 0.000000
vt 0.000000 0.000000
vt 0.000000 0.000000
vt 0.000000 0.000000
vt 0.000000 0.000000
vt 0.000000 0.000000
vt 0.000000 0.000000
vt 0.000000 0.000000
vt 0.000000 0.000000
vt 0.000000 0.000000
vt 0.000000 0.000000
s 0
usemtl Material.001
f 17/17/1 27/27/1 28/28/1 18/18/1
f 11/11/2 2/2/2 1/1/2 12/12/2
f 13/13/2 3/3/2 2/2/2 11/11/2
f 14/14/2 4/4/2 3/3/2 13/13/2
f 15/15/2 5/5/2 4/4/2 14/14/2
f 16/16/2 6/6/2 5/5/2 15/15/2
f 17/17/2 7/7/2 6/6/2 16/16/2
f 18/18/2 8/8/2 7/7/2 17/17/2
f 19/19/2 9/9/2 8/8/2 18/18/2
f 20/20/2 10/10/2 9/9/2 19/19/2
f 12/12/2 1/1/2 10/10/2 20/20/2
f 21/21/2 22/22/2 30/30/2 29/29/2 28/28/2 27/27/2 26/26/2 25/25/2 24/24/2 23/23/2
f 14/14/1 24/24/1 25/25/1 15/15/1
f 12/12/1 22/22/1 21/21/1 11/11/1
f 18/18/1 28/28/1 29/29/1 19/19/1
f 15/15/1 25/25/1 26/26/1 16/16/1
f 11/11/1 21/21/1 23/23/1 13/13/1
f 19/19/1 29/29/1 30/30/1 20/20/1
f 16/16/1 26/26/1 27/27/1 17/17/1
f 13/13/1 23/23/1 24/24/1 14/14/1
f 20/20/1 30/30/1 22/22/1 12/12/1
f 47/47/1 48/48/1 58/58/1 57/57/1
f 41/41/1 42/42/1 31/31/1 32/32/1
f 43/43/1 41/41/1 32/32/1 33/33/1
f 44/44/1 43/43/1 33/33/1 34/34/1
f 45/45/1 44/44/1 34/34/1 35/35/1
f 46/46/1 45/45/1 35/35/1 36/36/1
f 47/47/1 46/46/1 36/36/1 37/37/1
f 48/48/1 47/47/1 37/37/1 38/38/1
f 49/49/1 48/48/1 38/38/1 39/39/1
f 50/50/1 49/49/1 39/39/1 40/40/1
f 42/42/1 50/50/1 40/40/1 31/31/1
f 56/56/3 57/57/3 67/67/3 66/66/3
f 44/44/1 45/45/1 55/55/1 54/54/1
f 42/42/1 41/41/1 51/51/1 52/52/1
f 48/48/1 49/49/1 59/59/1 58/58/1
f 45/45/1 46/46/1 56/56/1 55/55/1
f 41/41/1 43/43/1 53/53/1 51/51/1
f 49/49/1 50/50/1 60/60/1 59/59/1
f 46/46/1 47/47/1 57/57/1 56/56/1
f 43/43/1 44/44/1 54/54/1 53/53/1
f 50/50/1 42/42/1 52/52/1 60/60/1
f 4/4/4 5/5/4 35/35/4 34/34/4
f 1/1/3 2/2/3 32/32/3 31/31/3
f 8/8/5 9/9/5 39/39/5 38/38/5
f 5/5/6 6/6/6 36/36/6 35/35/6
f 2/2/7 3/3/7 33/33/7 32/32/7
f 9/9/8 10/10/8 40/40/8 39/39/8
f 6/6/9 7/7/9 37/37/9 36/36/9
f 3/3/10 4/4/10 34/34/10 33/33/10
f 10/10/11 1/1/11 31/31/11 40/40/11
f 7/7/12 8/8/12 38/38/12 37/37/12
f 63/63/10 64/64/10 84/84/10 83/83/10
f 53/53/5 54/54/5 64/64/5 63/63/5
f 60/60/6 52/52/6 62/62/6 70/70/6
f 57/57/7 58/58/7 68/68/7 67/67/7
f 54/54/8 55/55/8 65/65/8 64/64/8
f 52/52/9 51/51/9 61/61/9 62/62/9
f 58/58/10 59/59/10 69/69/10 68/68/10
f 55/55/11 56/56/11 66/66/11 65/65/11
f 51/51/12 53/53/12 63/63/12 61/61/12
f 59/59/4 60/60/4 70/70/4 69/69/4
f 71/71/1 73/73/1 74/74/1 75/75/1 76/76/1 77/77/1 78/78/1 79/79/1 80/80/1 72/72/1
f 70/70/11 62/62/11 82/82/11 90/90/11
f 67/67/12 68/68/12 88/88/12 87/87/12
f 64/64/4 65/65/4 85/85/4 84/84/4
f 62/62/3 61/61/3 81/81/3 82/82/3
f 68/68/5 69/69/5 89/89/5 88/88/5
f 65/65/6 66/66/6 86/86/6 85/85/6
f 61/61/7 63/63/7 83/83/7 81/81/7
f 69/69/8 70/70/8 90/90/8 89/89/8
f 66/66/9 67/67/9 87/87/9 86/86/9
f 71/71/1 72/72/1 82/82/1 81/81/1
f 73/73/1 71/71/1 81/81/1 83/83/1
f 74/74/1 73/73/1 83/83/1 84/84/1
f 75/75/1 74/74/1 84/84/1 85/85/1
f 76/76/1 75/75/1 85/85/1 86/86/1
f 77/77/1 76/76/1 86/86/1 87/87/1
f 78/78/1 77/77/1 87/87/1 88/88/1
f 79/79/1 78/78/1 88/88/1 89/89/1
f 80/80/1 79/79/1 89/89/1 90/90/1
f 72/72/1 80/80/1 90/90/1 82/82/1
